<mxfile host="app.diagrams.net" agent="Mozilla/5.0 (Macintosh; Intel Mac OS X 10_15_7) AppleWebKit/537.36 (KHTML, like Gecko) Chrome/131.0.0.0 Safari/537.36" version="26.0.2">
  <diagram id="C5RBs43oDa-KdzZeNtuy" name="Page-1">
    <mxGraphModel dx="4044" dy="-931" grid="1" gridSize="10" guides="1" tooltips="1" connect="1" arrows="1" fold="1" page="1" pageScale="1" pageWidth="827" pageHeight="1169" math="0" shadow="0">
      <root>
        <mxCell id="WIyWlLk6GJQsqaUBKTNV-0" />
        <mxCell id="WIyWlLk6GJQsqaUBKTNV-1" parent="WIyWlLk6GJQsqaUBKTNV-0" />
        <mxCell id="XEK-cVhJefCKTbn2SnvK-88" style="edgeStyle=orthogonalEdgeStyle;shape=connector;rounded=0;orthogonalLoop=1;jettySize=auto;html=1;exitX=0.5;exitY=1;exitDx=0;exitDy=0;entryX=0.5;entryY=0;entryDx=0;entryDy=0;dashed=1;dashPattern=1 1;strokeColor=#3399FF;strokeWidth=1;align=center;verticalAlign=middle;fontFamily=Helvetica;fontSize=12;fontColor=default;labelBackgroundColor=default;endArrow=classic;fillColor=#dae8fc;" edge="1" parent="WIyWlLk6GJQsqaUBKTNV-1" source="XEK-cVhJefCKTbn2SnvK-6" target="XEK-cVhJefCKTbn2SnvK-87">
          <mxGeometry relative="1" as="geometry" />
        </mxCell>
        <mxCell id="XEK-cVhJefCKTbn2SnvK-109" style="edgeStyle=orthogonalEdgeStyle;shape=connector;rounded=0;orthogonalLoop=1;jettySize=auto;html=1;exitX=0;exitY=0.5;exitDx=0;exitDy=0;entryX=1;entryY=0.5;entryDx=0;entryDy=0;dashed=1;dashPattern=1 1;strokeColor=#3399FF;strokeWidth=1;align=center;verticalAlign=middle;fontFamily=Helvetica;fontSize=12;fontColor=default;labelBackgroundColor=default;endArrow=classic;fillColor=#dae8fc;" edge="1" parent="WIyWlLk6GJQsqaUBKTNV-1" source="XEK-cVhJefCKTbn2SnvK-6" target="XEK-cVhJefCKTbn2SnvK-105">
          <mxGeometry relative="1" as="geometry" />
        </mxCell>
        <mxCell id="XEK-cVhJefCKTbn2SnvK-6" value="填写资料" style="rounded=1;whiteSpace=wrap;html=1;fontSize=10;" vertex="1" parent="WIyWlLk6GJQsqaUBKTNV-1">
          <mxGeometry x="-1280" y="2620.35" width="120" height="60" as="geometry" />
        </mxCell>
        <mxCell id="XEK-cVhJefCKTbn2SnvK-64" value="" style="ellipse;html=1;shape=startState;fillColor=#007FFF;strokeColor=#3399FF;" vertex="1" parent="WIyWlLk6GJQsqaUBKTNV-1">
          <mxGeometry x="-950" y="2757" width="30" height="30" as="geometry" />
        </mxCell>
        <mxCell id="XEK-cVhJefCKTbn2SnvK-67" style="edgeStyle=orthogonalEdgeStyle;shape=connector;rounded=0;orthogonalLoop=1;jettySize=auto;html=1;exitX=0.5;exitY=1;exitDx=0;exitDy=0;entryX=0.5;entryY=0;entryDx=0;entryDy=0;dashed=1;dashPattern=1 1;strokeColor=#3399FF;strokeWidth=1;align=center;verticalAlign=middle;fontFamily=Helvetica;fontSize=12;fontColor=default;labelBackgroundColor=default;endArrow=classic;fillColor=#dae8fc;" edge="1" parent="WIyWlLk6GJQsqaUBKTNV-1" source="XEK-cVhJefCKTbn2SnvK-68" target="XEK-cVhJefCKTbn2SnvK-6">
          <mxGeometry relative="1" as="geometry">
            <mxPoint x="-1140" y="2450" as="targetPoint" />
          </mxGeometry>
        </mxCell>
        <mxCell id="XEK-cVhJefCKTbn2SnvK-70" value="运营&lt;br&gt;创建专家" style="edgeLabel;html=1;align=center;verticalAlign=middle;resizable=0;points=[];rounded=1;shadow=0;glass=0;strokeColor=default;strokeWidth=1;fontFamily=Helvetica;fontSize=12;fontColor=default;fillColor=default;" vertex="1" connectable="0" parent="XEK-cVhJefCKTbn2SnvK-67">
          <mxGeometry x="-0.1931" y="1" relative="1" as="geometry">
            <mxPoint x="-148" y="40" as="offset" />
          </mxGeometry>
        </mxCell>
        <mxCell id="XEK-cVhJefCKTbn2SnvK-72" style="edgeStyle=orthogonalEdgeStyle;rounded=0;orthogonalLoop=1;jettySize=auto;html=1;exitX=0.5;exitY=1;exitDx=0;exitDy=0;fontFamily=Helvetica;fontSize=12;fontColor=default;dashed=1;dashPattern=1 1;strokeColor=#3399FF;strokeWidth=1;align=center;verticalAlign=middle;labelBackgroundColor=default;endArrow=classic;fillColor=#dae8fc;" edge="1" parent="WIyWlLk6GJQsqaUBKTNV-1" source="XEK-cVhJefCKTbn2SnvK-68" target="XEK-cVhJefCKTbn2SnvK-71">
          <mxGeometry relative="1" as="geometry" />
        </mxCell>
        <mxCell id="XEK-cVhJefCKTbn2SnvK-73" value="个人&lt;br&gt;认证机构专家" style="edgeLabel;html=1;align=center;verticalAlign=middle;resizable=0;points=[];rounded=1;shadow=0;glass=0;strokeColor=default;strokeWidth=1;fontFamily=Helvetica;fontSize=12;fontColor=default;labelBackgroundColor=default;fillColor=default;" vertex="1" connectable="0" parent="XEK-cVhJefCKTbn2SnvK-72">
          <mxGeometry x="0.2038" y="2" relative="1" as="geometry">
            <mxPoint x="69" y="43" as="offset" />
          </mxGeometry>
        </mxCell>
        <mxCell id="XEK-cVhJefCKTbn2SnvK-68" value="" style="ellipse;html=1;shape=startState;fillColor=#007FFF;strokeColor=#3399FF;" vertex="1" parent="WIyWlLk6GJQsqaUBKTNV-1">
          <mxGeometry x="-1015" y="2412" width="30" height="30" as="geometry" />
        </mxCell>
        <mxCell id="XEK-cVhJefCKTbn2SnvK-112" style="edgeStyle=orthogonalEdgeStyle;shape=connector;rounded=0;orthogonalLoop=1;jettySize=auto;html=1;exitX=1;exitY=0.5;exitDx=0;exitDy=0;dashed=1;dashPattern=1 1;strokeColor=#3399FF;strokeWidth=1;align=center;verticalAlign=middle;fontFamily=Helvetica;fontSize=12;fontColor=default;labelBackgroundColor=default;endArrow=classic;fillColor=#dae8fc;" edge="1" parent="WIyWlLk6GJQsqaUBKTNV-1" source="XEK-cVhJefCKTbn2SnvK-71" target="XEK-cVhJefCKTbn2SnvK-111">
          <mxGeometry relative="1" as="geometry" />
        </mxCell>
        <mxCell id="XEK-cVhJefCKTbn2SnvK-71" value="填写资料" style="rounded=1;whiteSpace=wrap;html=1;fontSize=10;" vertex="1" parent="WIyWlLk6GJQsqaUBKTNV-1">
          <mxGeometry x="-840" y="2620.35" width="120" height="60" as="geometry" />
        </mxCell>
        <mxCell id="XEK-cVhJefCKTbn2SnvK-96" style="edgeStyle=orthogonalEdgeStyle;shape=connector;rounded=0;orthogonalLoop=1;jettySize=auto;html=1;exitX=0;exitY=0.5;exitDx=0;exitDy=0;entryX=1;entryY=0.5;entryDx=0;entryDy=0;dashed=1;dashPattern=1 1;strokeColor=#3399FF;strokeWidth=1;align=center;verticalAlign=middle;fontFamily=Helvetica;fontSize=12;fontColor=default;labelBackgroundColor=default;endArrow=classic;fillColor=#dae8fc;" edge="1" parent="WIyWlLk6GJQsqaUBKTNV-1" source="XEK-cVhJefCKTbn2SnvK-84" target="XEK-cVhJefCKTbn2SnvK-95">
          <mxGeometry relative="1" as="geometry" />
        </mxCell>
        <mxCell id="XEK-cVhJefCKTbn2SnvK-84" value="成为“机构专家”" style="rounded=1;whiteSpace=wrap;html=1;fontSize=10;" vertex="1" parent="WIyWlLk6GJQsqaUBKTNV-1">
          <mxGeometry x="-840" y="2882" width="120" height="60" as="geometry" />
        </mxCell>
        <mxCell id="XEK-cVhJefCKTbn2SnvK-91" style="edgeStyle=orthogonalEdgeStyle;shape=connector;rounded=0;orthogonalLoop=1;jettySize=auto;html=1;exitX=0.5;exitY=1;exitDx=0;exitDy=0;exitPerimeter=0;entryX=0.5;entryY=0;entryDx=0;entryDy=0;dashed=1;dashPattern=1 1;strokeColor=#3399FF;strokeWidth=1;align=center;verticalAlign=middle;fontFamily=Helvetica;fontSize=12;fontColor=default;labelBackgroundColor=default;endArrow=classic;fillColor=#dae8fc;" edge="1" parent="WIyWlLk6GJQsqaUBKTNV-1" source="XEK-cVhJefCKTbn2SnvK-86" target="XEK-cVhJefCKTbn2SnvK-84">
          <mxGeometry relative="1" as="geometry" />
        </mxCell>
        <mxCell id="XEK-cVhJefCKTbn2SnvK-92" value="通过" style="edgeLabel;html=1;align=center;verticalAlign=middle;resizable=0;points=[];rounded=1;shadow=0;glass=0;strokeColor=default;strokeWidth=1;fontFamily=Helvetica;fontSize=12;fontColor=default;labelBackgroundColor=default;fillColor=default;" vertex="1" connectable="0" parent="XEK-cVhJefCKTbn2SnvK-91">
          <mxGeometry x="-0.325" y="1" relative="1" as="geometry">
            <mxPoint as="offset" />
          </mxGeometry>
        </mxCell>
        <mxCell id="XEK-cVhJefCKTbn2SnvK-93" style="edgeStyle=orthogonalEdgeStyle;shape=connector;rounded=0;orthogonalLoop=1;jettySize=auto;html=1;exitX=0;exitY=0.5;exitDx=0;exitDy=0;exitPerimeter=0;dashed=1;dashPattern=1 1;strokeColor=#3399FF;strokeWidth=1;align=center;verticalAlign=middle;fontFamily=Helvetica;fontSize=12;fontColor=default;labelBackgroundColor=default;endArrow=classic;fillColor=#dae8fc;" edge="1" parent="WIyWlLk6GJQsqaUBKTNV-1" source="XEK-cVhJefCKTbn2SnvK-86" target="XEK-cVhJefCKTbn2SnvK-64">
          <mxGeometry relative="1" as="geometry" />
        </mxCell>
        <mxCell id="XEK-cVhJefCKTbn2SnvK-94" value="驳回" style="edgeLabel;html=1;align=center;verticalAlign=middle;resizable=0;points=[];rounded=1;shadow=0;glass=0;strokeColor=default;strokeWidth=1;fontFamily=Helvetica;fontSize=12;fontColor=default;labelBackgroundColor=default;fillColor=default;" vertex="1" connectable="0" parent="XEK-cVhJefCKTbn2SnvK-93">
          <mxGeometry x="0.0024" relative="1" as="geometry">
            <mxPoint as="offset" />
          </mxGeometry>
        </mxCell>
        <mxCell id="XEK-cVhJefCKTbn2SnvK-86" value="运营审核" style="strokeWidth=1;html=1;shape=mxgraph.flowchart.decision;whiteSpace=wrap;rounded=1;shadow=0;glass=0;strokeColor=default;align=center;verticalAlign=middle;fontFamily=Helvetica;fontSize=10;fontColor=default;labelBackgroundColor=default;fillColor=default;" vertex="1" parent="WIyWlLk6GJQsqaUBKTNV-1">
          <mxGeometry x="-840" y="2742" width="120" height="60" as="geometry" />
        </mxCell>
        <mxCell id="XEK-cVhJefCKTbn2SnvK-97" style="edgeStyle=orthogonalEdgeStyle;shape=connector;rounded=0;orthogonalLoop=1;jettySize=auto;html=1;exitX=0.5;exitY=1;exitDx=0;exitDy=0;entryX=0;entryY=0.5;entryDx=0;entryDy=0;dashed=1;dashPattern=1 1;strokeColor=#3399FF;strokeWidth=1;align=center;verticalAlign=middle;fontFamily=Helvetica;fontSize=12;fontColor=default;labelBackgroundColor=default;endArrow=classic;fillColor=#dae8fc;" edge="1" parent="WIyWlLk6GJQsqaUBKTNV-1" source="XEK-cVhJefCKTbn2SnvK-87" target="XEK-cVhJefCKTbn2SnvK-95">
          <mxGeometry relative="1" as="geometry" />
        </mxCell>
        <mxCell id="XEK-cVhJefCKTbn2SnvK-87" value="成为&lt;br&gt;“出海专家”" style="rounded=1;whiteSpace=wrap;html=1;fontSize=10;" vertex="1" parent="WIyWlLk6GJQsqaUBKTNV-1">
          <mxGeometry x="-1280" y="2742" width="120" height="60" as="geometry" />
        </mxCell>
        <mxCell id="XEK-cVhJefCKTbn2SnvK-89" style="edgeStyle=orthogonalEdgeStyle;shape=connector;rounded=0;orthogonalLoop=1;jettySize=auto;html=1;exitX=0.5;exitY=1;exitDx=0;exitDy=0;entryX=0.5;entryY=0;entryDx=0;entryDy=0;entryPerimeter=0;dashed=1;dashPattern=1 1;strokeColor=#3399FF;strokeWidth=1;align=center;verticalAlign=middle;fontFamily=Helvetica;fontSize=12;fontColor=default;labelBackgroundColor=default;endArrow=classic;fillColor=#dae8fc;" edge="1" parent="WIyWlLk6GJQsqaUBKTNV-1" source="XEK-cVhJefCKTbn2SnvK-71" target="XEK-cVhJefCKTbn2SnvK-86">
          <mxGeometry relative="1" as="geometry" />
        </mxCell>
        <mxCell id="XEK-cVhJefCKTbn2SnvK-90" value="1、姓名与身份证是否相符；&lt;div&gt;2、专家称号与佐证材料是否相符，包括是否过期？&lt;/div&gt;&lt;div&gt;3、相关证书与身份证等佐证材料是否相符；&lt;/div&gt;&lt;div&gt;4、简介、介绍信息是否有异常；&lt;/div&gt;" style="text;html=1;align=left;verticalAlign=middle;resizable=0;points=[];autosize=1;strokeColor=none;fillColor=none;fontFamily=Helvetica;fontSize=12;fontColor=default;labelBackgroundColor=default;" vertex="1" parent="WIyWlLk6GJQsqaUBKTNV-1">
          <mxGeometry x="-720" y="2737" width="290" height="70" as="geometry" />
        </mxCell>
        <mxCell id="XEK-cVhJefCKTbn2SnvK-95" value="" style="ellipse;html=1;shape=startState;fillColor=#007FFF;strokeColor=#3399FF;" vertex="1" parent="WIyWlLk6GJQsqaUBKTNV-1">
          <mxGeometry x="-1050" y="2897" width="30" height="30" as="geometry" />
        </mxCell>
        <mxCell id="XEK-cVhJefCKTbn2SnvK-104" value="表单" style="swimlane;fontStyle=0;childLayout=stackLayout;horizontal=1;startSize=26;fillColor=none;horizontalStack=0;resizeParent=1;resizeParentMax=0;resizeLast=0;collapsible=1;marginBottom=0;html=1;rounded=1;shadow=0;glass=0;strokeColor=default;strokeWidth=1;align=center;verticalAlign=middle;fontFamily=Helvetica;fontSize=12;fontColor=default;labelBackgroundColor=default;" vertex="1" parent="WIyWlLk6GJQsqaUBKTNV-1">
          <mxGeometry x="-1510" y="2532" width="170" height="210" as="geometry">
            <mxRectangle x="-1050" y="2580" width="60" height="30" as="alternateBounds" />
          </mxGeometry>
        </mxCell>
        <mxCell id="XEK-cVhJefCKTbn2SnvK-105" value="&lt;font style=&quot;color: rgb(255, 51, 51);&quot;&gt;*&lt;/font&gt; 姓名：&lt;div&gt;&lt;font style=&quot;color: rgb(255, 51, 51);&quot;&gt;*&lt;/font&gt;&amp;nbsp;头像：&lt;br&gt;&lt;div&gt;所属公司+职务（N）&lt;/div&gt;&lt;div&gt;&lt;font style=&quot;color: rgb(255, 51, 51);&quot;&gt;*&lt;/font&gt;&lt;span style=&quot;background-color: light-dark(#ffffff, var(--ge-dark-color, #121212)); color: light-dark(rgb(0, 0, 0), rgb(255, 255, 255));&quot;&gt;&amp;nbsp;&lt;/span&gt;专家称号（N）&lt;br&gt;&lt;font style=&quot;color: rgb(255, 51, 51);&quot;&gt;*&lt;/font&gt;&amp;nbsp;行业&lt;/div&gt;&lt;div&gt;&lt;font style=&quot;color: rgb(255, 51, 51);&quot;&gt;*&lt;/font&gt;&lt;span style=&quot;background-color: light-dark(#ffffff, var(--ge-dark-color, #121212)); color: light-dark(rgb(0, 0, 0), rgb(255, 255, 255));&quot;&gt;&amp;nbsp;&lt;/span&gt;范围&lt;/div&gt;&lt;div&gt;&lt;font style=&quot;color: rgb(255, 51, 51);&quot;&gt;*&lt;/font&gt;&lt;span style=&quot;background-color: light-dark(#ffffff, var(--ge-dark-color, #121212)); color: light-dark(rgb(0, 0, 0), rgb(255, 255, 255));&quot;&gt;&amp;nbsp;&lt;/span&gt;区域&lt;/div&gt;&lt;div&gt;&lt;br&gt;&lt;/div&gt;&lt;div&gt;证书（N）&lt;/div&gt;&lt;div&gt;&lt;br&gt;&lt;/div&gt;&lt;div&gt;&lt;font style=&quot;color: rgb(255, 51, 51);&quot;&gt;*&lt;/font&gt;&lt;span style=&quot;background-color: light-dark(#ffffff, var(--ge-dark-color, #121212)); color: light-dark(rgb(0, 0, 0), rgb(255, 255, 255));&quot;&gt;&amp;nbsp;&lt;/span&gt;简介&lt;/div&gt;&lt;div&gt;&lt;font style=&quot;color: rgb(255, 51, 51);&quot;&gt;*&lt;/font&gt;&lt;span style=&quot;background-color: light-dark(#ffffff, var(--ge-dark-color, #121212)); color: light-dark(rgb(0, 0, 0), rgb(255, 255, 255));&quot;&gt;&amp;nbsp;&lt;/span&gt;介绍&lt;/div&gt;&lt;/div&gt;" style="text;strokeColor=none;fillColor=none;align=left;verticalAlign=top;spacingLeft=4;spacingRight=4;overflow=hidden;rotatable=0;points=[[0,0.5],[1,0.5]];portConstraint=eastwest;whiteSpace=wrap;html=1;fontFamily=Helvetica;fontSize=12;fontColor=default;labelBackgroundColor=default;" vertex="1" parent="XEK-cVhJefCKTbn2SnvK-104">
          <mxGeometry y="26" width="170" height="184" as="geometry" />
        </mxCell>
        <mxCell id="XEK-cVhJefCKTbn2SnvK-110" value="表单" style="swimlane;fontStyle=0;childLayout=stackLayout;horizontal=1;startSize=26;fillColor=none;horizontalStack=0;resizeParent=1;resizeParentMax=0;resizeLast=0;collapsible=1;marginBottom=0;html=1;rounded=1;shadow=0;glass=0;strokeColor=default;strokeWidth=1;align=center;verticalAlign=middle;fontFamily=Helvetica;fontSize=12;fontColor=default;labelBackgroundColor=default;" vertex="1" parent="WIyWlLk6GJQsqaUBKTNV-1">
          <mxGeometry x="-540" y="2532" width="440" height="210" as="geometry">
            <mxRectangle x="-1050" y="2580" width="60" height="30" as="alternateBounds" />
          </mxGeometry>
        </mxCell>
        <mxCell id="XEK-cVhJefCKTbn2SnvK-111" value="&lt;font style=&quot;color: rgb(255, 51, 51);&quot;&gt;*&lt;/font&gt; 姓名：&lt;div&gt;&lt;font style=&quot;color: rgb(255, 51, 51);&quot;&gt;*&lt;/font&gt;&amp;nbsp;头像：&lt;br&gt;&lt;div&gt;所属公司+职务（N）（来自加入的企业，没有则置空，系统展示，用户不可编辑）&lt;/div&gt;&lt;div&gt;&lt;font style=&quot;color: rgb(255, 51, 51);&quot;&gt;*&lt;/font&gt;&lt;span style=&quot;background-color: light-dark(#ffffff, var(--ge-dark-color, #121212)); color: light-dark(rgb(0, 0, 0), rgb(255, 255, 255));&quot;&gt;&amp;nbsp;&lt;/span&gt;专家称号+佐证材料（N）&lt;br&gt;&lt;font style=&quot;color: rgb(255, 51, 51);&quot;&gt;*&lt;/font&gt;&amp;nbsp;行业&lt;/div&gt;&lt;div&gt;&lt;font style=&quot;color: rgb(255, 51, 51);&quot;&gt;*&lt;/font&gt;&lt;span style=&quot;background-color: light-dark(#ffffff, var(--ge-dark-color, #121212)); color: light-dark(rgb(0, 0, 0), rgb(255, 255, 255));&quot;&gt;&amp;nbsp;&lt;/span&gt;范围&lt;/div&gt;&lt;div&gt;&lt;font style=&quot;color: rgb(255, 51, 51);&quot;&gt;*&lt;/font&gt;&lt;span style=&quot;background-color: light-dark(#ffffff, var(--ge-dark-color, #121212)); color: light-dark(rgb(0, 0, 0), rgb(255, 255, 255));&quot;&gt;&amp;nbsp;&lt;/span&gt;区域&lt;/div&gt;&lt;div&gt;&lt;br&gt;&lt;/div&gt;&lt;div&gt;证书（N）&lt;/div&gt;&lt;div&gt;&lt;br&gt;&lt;/div&gt;&lt;div&gt;&lt;font style=&quot;color: rgb(255, 51, 51);&quot;&gt;*&lt;/font&gt;&lt;span style=&quot;background-color: light-dark(#ffffff, var(--ge-dark-color, #121212)); color: light-dark(rgb(0, 0, 0), rgb(255, 255, 255));&quot;&gt;&amp;nbsp;&lt;/span&gt;简介&lt;/div&gt;&lt;div&gt;&lt;font style=&quot;color: rgb(255, 51, 51);&quot;&gt;*&lt;/font&gt;&lt;span style=&quot;background-color: light-dark(#ffffff, var(--ge-dark-color, #121212)); color: light-dark(rgb(0, 0, 0), rgb(255, 255, 255));&quot;&gt;&amp;nbsp;&lt;/span&gt;介绍&lt;/div&gt;&lt;/div&gt;" style="text;strokeColor=none;fillColor=none;align=left;verticalAlign=top;spacingLeft=4;spacingRight=4;overflow=hidden;rotatable=0;points=[[0,0.5],[1,0.5]];portConstraint=eastwest;whiteSpace=wrap;html=1;fontFamily=Helvetica;fontSize=12;fontColor=default;labelBackgroundColor=default;" vertex="1" parent="XEK-cVhJefCKTbn2SnvK-110">
          <mxGeometry y="26" width="440" height="184" as="geometry" />
        </mxCell>
        <mxCell id="XEK-cVhJefCKTbn2SnvK-117" style="edgeStyle=orthogonalEdgeStyle;shape=connector;rounded=0;orthogonalLoop=1;jettySize=auto;html=1;exitX=1;exitY=0.5;exitDx=0;exitDy=0;entryX=0;entryY=0.5;entryDx=0;entryDy=0;dashed=1;dashPattern=1 1;strokeColor=#3399FF;strokeWidth=1;align=center;verticalAlign=middle;fontFamily=Helvetica;fontSize=12;fontColor=default;labelBackgroundColor=default;endArrow=classic;fillColor=#dae8fc;" edge="1" parent="WIyWlLk6GJQsqaUBKTNV-1" source="XEK-cVhJefCKTbn2SnvK-114" target="XEK-cVhJefCKTbn2SnvK-116">
          <mxGeometry relative="1" as="geometry" />
        </mxCell>
        <mxCell id="XEK-cVhJefCKTbn2SnvK-118" value="个人提交认证" style="edgeLabel;html=1;align=center;verticalAlign=middle;resizable=0;points=[];rounded=1;shadow=0;glass=0;strokeColor=default;strokeWidth=1;fontFamily=Helvetica;fontSize=12;fontColor=default;labelBackgroundColor=default;fillColor=default;" vertex="1" connectable="0" parent="XEK-cVhJefCKTbn2SnvK-117">
          <mxGeometry x="-0.1407" y="-3" relative="1" as="geometry">
            <mxPoint x="28" y="-5" as="offset" />
          </mxGeometry>
        </mxCell>
        <mxCell id="XEK-cVhJefCKTbn2SnvK-137" style="edgeStyle=orthogonalEdgeStyle;shape=connector;rounded=0;orthogonalLoop=1;jettySize=auto;html=1;exitX=1;exitY=0.5;exitDx=0;exitDy=0;entryX=0.5;entryY=1;entryDx=0;entryDy=0;dashed=1;dashPattern=1 1;strokeColor=#3399FF;strokeWidth=1;align=center;verticalAlign=middle;fontFamily=Helvetica;fontSize=12;fontColor=default;labelBackgroundColor=default;endArrow=classic;fillColor=#dae8fc;" edge="1" parent="WIyWlLk6GJQsqaUBKTNV-1" source="XEK-cVhJefCKTbn2SnvK-114" target="XEK-cVhJefCKTbn2SnvK-133">
          <mxGeometry relative="1" as="geometry">
            <Array as="points">
              <mxPoint x="-1290" y="3170" />
              <mxPoint x="-1290" y="3432" />
              <mxPoint x="-415" y="3432" />
            </Array>
          </mxGeometry>
        </mxCell>
        <mxCell id="XEK-cVhJefCKTbn2SnvK-138" value="创建/编辑/删除等操作无流转状态，实时生效" style="edgeLabel;html=1;align=center;verticalAlign=middle;resizable=0;points=[];rounded=1;shadow=0;glass=0;strokeColor=default;strokeWidth=1;fontFamily=Helvetica;fontSize=12;fontColor=default;labelBackgroundColor=default;fillColor=default;" vertex="1" connectable="0" parent="XEK-cVhJefCKTbn2SnvK-137">
          <mxGeometry x="-0.3775" y="-3" relative="1" as="geometry">
            <mxPoint x="257" y="-3" as="offset" />
          </mxGeometry>
        </mxCell>
        <mxCell id="XEK-cVhJefCKTbn2SnvK-139" value="平台创建" style="edgeLabel;html=1;align=center;verticalAlign=middle;resizable=0;points=[];rounded=1;shadow=0;glass=0;strokeColor=default;strokeWidth=1;fontFamily=Helvetica;fontSize=12;fontColor=default;labelBackgroundColor=default;fillColor=default;" vertex="1" connectable="0" parent="XEK-cVhJefCKTbn2SnvK-137">
          <mxGeometry x="-0.4616" y="1" relative="1" as="geometry">
            <mxPoint as="offset" />
          </mxGeometry>
        </mxCell>
        <mxCell id="XEK-cVhJefCKTbn2SnvK-114" value="" style="ellipse;html=1;shape=startState;fillColor=#007FFF;strokeColor=#3399FF;" vertex="1" parent="WIyWlLk6GJQsqaUBKTNV-1">
          <mxGeometry x="-1360" y="3154.5" width="30" height="30" as="geometry" />
        </mxCell>
        <mxCell id="XEK-cVhJefCKTbn2SnvK-116" value="审核中" style="rounded=1;whiteSpace=wrap;html=1;fontSize=10;" vertex="1" parent="WIyWlLk6GJQsqaUBKTNV-1">
          <mxGeometry x="-1070" y="3137" width="120" height="60" as="geometry" />
        </mxCell>
        <mxCell id="XEK-cVhJefCKTbn2SnvK-121" style="edgeStyle=orthogonalEdgeStyle;shape=connector;rounded=0;orthogonalLoop=1;jettySize=auto;html=1;exitX=1;exitY=0.5;exitDx=0;exitDy=0;entryX=-0.005;entryY=0.596;entryDx=0;entryDy=0;entryPerimeter=0;dashed=1;dashPattern=1 1;strokeColor=#3399FF;strokeWidth=1;align=center;verticalAlign=middle;fontFamily=Helvetica;fontSize=12;fontColor=default;labelBackgroundColor=default;endArrow=classic;fillColor=#dae8fc;" edge="1" parent="WIyWlLk6GJQsqaUBKTNV-1" source="XEK-cVhJefCKTbn2SnvK-116">
          <mxGeometry relative="1" as="geometry">
            <mxPoint x="-820.6000000000004" y="3167.76" as="targetPoint" />
          </mxGeometry>
        </mxCell>
        <mxCell id="XEK-cVhJefCKTbn2SnvK-122" value="运营审核" style="edgeLabel;html=1;align=center;verticalAlign=middle;resizable=0;points=[];rounded=1;shadow=0;glass=0;strokeColor=default;strokeWidth=1;fontFamily=Helvetica;fontSize=12;fontColor=default;labelBackgroundColor=default;fillColor=default;" vertex="1" connectable="0" parent="XEK-cVhJefCKTbn2SnvK-121">
          <mxGeometry x="-0.0401" y="-1" relative="1" as="geometry">
            <mxPoint as="offset" />
          </mxGeometry>
        </mxCell>
        <mxCell id="XEK-cVhJefCKTbn2SnvK-126" style="edgeStyle=orthogonalEdgeStyle;shape=connector;rounded=0;orthogonalLoop=1;jettySize=auto;html=1;exitX=0.5;exitY=0;exitDx=0;exitDy=0;exitPerimeter=0;dashed=1;dashPattern=1 1;strokeColor=#3399FF;strokeWidth=1;align=center;verticalAlign=middle;fontFamily=Helvetica;fontSize=12;fontColor=default;labelBackgroundColor=default;endArrow=classic;fillColor=#dae8fc;entryX=0;entryY=0.5;entryDx=0;entryDy=0;" edge="1" parent="WIyWlLk6GJQsqaUBKTNV-1" source="XEK-cVhJefCKTbn2SnvK-123" target="XEK-cVhJefCKTbn2SnvK-124">
          <mxGeometry relative="1" as="geometry" />
        </mxCell>
        <mxCell id="XEK-cVhJefCKTbn2SnvK-128" value="通过" style="edgeLabel;html=1;align=center;verticalAlign=middle;resizable=0;points=[];rounded=1;shadow=0;glass=0;strokeColor=default;strokeWidth=1;fontFamily=Helvetica;fontSize=12;fontColor=default;labelBackgroundColor=default;fillColor=default;" vertex="1" connectable="0" parent="XEK-cVhJefCKTbn2SnvK-126">
          <mxGeometry x="-0.0193" y="2" relative="1" as="geometry">
            <mxPoint as="offset" />
          </mxGeometry>
        </mxCell>
        <mxCell id="XEK-cVhJefCKTbn2SnvK-127" style="edgeStyle=orthogonalEdgeStyle;shape=connector;rounded=0;orthogonalLoop=1;jettySize=auto;html=1;exitX=0.5;exitY=1;exitDx=0;exitDy=0;exitPerimeter=0;entryX=0;entryY=0.5;entryDx=0;entryDy=0;dashed=1;dashPattern=1 1;strokeColor=#3399FF;strokeWidth=1;align=center;verticalAlign=middle;fontFamily=Helvetica;fontSize=12;fontColor=default;labelBackgroundColor=default;endArrow=classic;fillColor=#dae8fc;entryPerimeter=0;" edge="1" parent="WIyWlLk6GJQsqaUBKTNV-1" source="XEK-cVhJefCKTbn2SnvK-123" target="XEK-cVhJefCKTbn2SnvK-136">
          <mxGeometry relative="1" as="geometry">
            <mxPoint x="-650" y="3227" as="targetPoint" />
          </mxGeometry>
        </mxCell>
        <mxCell id="XEK-cVhJefCKTbn2SnvK-129" value="驳回" style="edgeLabel;html=1;align=center;verticalAlign=middle;resizable=0;points=[];rounded=1;shadow=0;glass=0;strokeColor=default;strokeWidth=1;fontFamily=Helvetica;fontSize=12;fontColor=default;labelBackgroundColor=default;fillColor=default;" vertex="1" connectable="0" parent="XEK-cVhJefCKTbn2SnvK-127">
          <mxGeometry x="0.2408" relative="1" as="geometry">
            <mxPoint as="offset" />
          </mxGeometry>
        </mxCell>
        <mxCell id="XEK-cVhJefCKTbn2SnvK-123" value="" style="strokeWidth=1;html=1;shape=mxgraph.flowchart.decision;whiteSpace=wrap;rounded=1;shadow=0;glass=0;strokeColor=default;align=center;verticalAlign=middle;fontFamily=Helvetica;fontSize=10;fontColor=default;labelBackgroundColor=default;fillColor=default;" vertex="1" parent="WIyWlLk6GJQsqaUBKTNV-1">
          <mxGeometry x="-820" y="3154.5" width="20" height="27.5" as="geometry" />
        </mxCell>
        <mxCell id="XEK-cVhJefCKTbn2SnvK-134" style="edgeStyle=orthogonalEdgeStyle;shape=connector;rounded=0;orthogonalLoop=1;jettySize=auto;html=1;exitX=1;exitY=0.5;exitDx=0;exitDy=0;entryX=0.5;entryY=0;entryDx=0;entryDy=0;dashed=1;dashPattern=1 1;strokeColor=#3399FF;strokeWidth=1;align=center;verticalAlign=middle;fontFamily=Helvetica;fontSize=12;fontColor=default;labelBackgroundColor=default;endArrow=classic;fillColor=#dae8fc;" edge="1" parent="WIyWlLk6GJQsqaUBKTNV-1" source="XEK-cVhJefCKTbn2SnvK-124" target="XEK-cVhJefCKTbn2SnvK-133">
          <mxGeometry relative="1" as="geometry" />
        </mxCell>
        <mxCell id="XEK-cVhJefCKTbn2SnvK-124" value="机构专家" style="rounded=1;whiteSpace=wrap;html=1;fontSize=10;" vertex="1" parent="WIyWlLk6GJQsqaUBKTNV-1">
          <mxGeometry x="-650" y="3082" width="120" height="60" as="geometry" />
        </mxCell>
        <mxCell id="XEK-cVhJefCKTbn2SnvK-131" style="edgeStyle=orthogonalEdgeStyle;shape=connector;rounded=0;orthogonalLoop=1;jettySize=auto;html=1;entryX=0;entryY=0.5;entryDx=0;entryDy=0;dashed=1;dashPattern=1 1;strokeColor=#3399FF;strokeWidth=1;align=center;verticalAlign=middle;fontFamily=Helvetica;fontSize=12;fontColor=default;labelBackgroundColor=default;endArrow=classic;fillColor=#dae8fc;exitX=0.5;exitY=1;exitDx=0;exitDy=0;exitPerimeter=0;" edge="1" parent="WIyWlLk6GJQsqaUBKTNV-1" source="XEK-cVhJefCKTbn2SnvK-136" target="XEK-cVhJefCKTbn2SnvK-116">
          <mxGeometry relative="1" as="geometry">
            <mxPoint x="-590.0434782608695" y="3272" as="sourcePoint" />
            <Array as="points">
              <mxPoint x="-590" y="3292" />
              <mxPoint x="-1090" y="3292" />
              <mxPoint x="-1090" y="3167" />
            </Array>
          </mxGeometry>
        </mxCell>
        <mxCell id="XEK-cVhJefCKTbn2SnvK-132" value="用户&lt;br&gt;编辑重新提交" style="edgeLabel;html=1;align=center;verticalAlign=middle;resizable=0;points=[];rounded=1;shadow=0;glass=0;strokeColor=default;strokeWidth=1;fontFamily=Helvetica;fontSize=12;fontColor=default;labelBackgroundColor=default;fillColor=default;" vertex="1" connectable="0" parent="XEK-cVhJefCKTbn2SnvK-131">
          <mxGeometry x="-0.1001" y="-1" relative="1" as="geometry">
            <mxPoint as="offset" />
          </mxGeometry>
        </mxCell>
        <mxCell id="XEK-cVhJefCKTbn2SnvK-135" style="edgeStyle=orthogonalEdgeStyle;shape=connector;rounded=0;orthogonalLoop=1;jettySize=auto;html=1;exitX=1;exitY=0.5;exitDx=0;exitDy=0;exitPerimeter=0;entryX=0.5;entryY=1;entryDx=0;entryDy=0;dashed=1;dashPattern=1 1;strokeColor=#3399FF;strokeWidth=1;align=center;verticalAlign=middle;fontFamily=Helvetica;fontSize=12;fontColor=default;labelBackgroundColor=default;endArrow=classic;fillColor=#dae8fc;" edge="1" parent="WIyWlLk6GJQsqaUBKTNV-1" source="XEK-cVhJefCKTbn2SnvK-136" target="XEK-cVhJefCKTbn2SnvK-133">
          <mxGeometry relative="1" as="geometry">
            <mxPoint x="-530" y="3242" as="sourcePoint" />
            <Array as="points">
              <mxPoint x="-415" y="3196" />
            </Array>
          </mxGeometry>
        </mxCell>
        <mxCell id="XEK-cVhJefCKTbn2SnvK-133" value="" style="ellipse;html=1;shape=startState;fillColor=#007FFF;strokeColor=#3399FF;" vertex="1" parent="WIyWlLk6GJQsqaUBKTNV-1">
          <mxGeometry x="-430" y="3152" width="30" height="30" as="geometry" />
        </mxCell>
        <mxCell id="XEK-cVhJefCKTbn2SnvK-136" value="" style="strokeWidth=1;html=1;shape=mxgraph.flowchart.decision;whiteSpace=wrap;rounded=1;shadow=0;glass=0;strokeColor=default;align=center;verticalAlign=middle;fontFamily=Helvetica;fontSize=10;fontColor=default;labelBackgroundColor=default;fillColor=default;" vertex="1" parent="WIyWlLk6GJQsqaUBKTNV-1">
          <mxGeometry x="-600" y="3182" width="20" height="27.5" as="geometry" />
        </mxCell>
      </root>
    </mxGraphModel>
  </diagram>
</mxfile>
